<?xml version="1.0" encoding="UTF-8" standalone="no"?>
<!DOCTYPE svg PUBLIC "-//W3C//DTD SVG 1.1//EN" "http://www.w3.org/Graphics/SVG/1.1/DTD/svg11.dtd">
<svg xmlns="http://www.w3.org/2000/svg" version="1.1" viewBox="0 0 1386 756" width="1386.0pt" height="756.0pt">
<path d="M 0.00 0.00 L 1386.00 0.00 L 1386.00 756.00 L 0.00 756.00 L 0.00 0.00 Z" fill="#f8f8f6" />
<path d="M 250.27 198.94 C 264.15 218.32 278.31 237.48 292.18 256.86 C 294.06 259.51 296.40 262.04 297.80 264.97 C 297.19 267.58 294.71 269.97 293.23 272.21 C 285.69 282.77 278.07 293.29 270.71 303.99 C 264.67 296.41 259.17 288.37 253.40 280.58 C 252.01 278.45 250.18 276.74 250.30 274.06 C 250.29 249.04 250.22 223.95 250.27 198.94 Z" fill="#1a332c" />
<path d="M 243.22 198.66 C 243.44 224.54 243.25 250.44 243.33 276.32 C 237.89 284.50 231.88 292.27 226.52 300.50 C 209.10 325.51 191.57 350.40 174.09 375.37 C 155.33 375.38 136.58 375.40 117.83 375.40 C 159.27 317.58 200.08 259.30 241.27 201.31 C 241.92 200.42 242.57 199.54 243.22 198.66 Z" fill="#1a332c" />
<path d="M 367.72 199.35 C 374.70 208.38 381.53 217.54 388.16 226.83 C 396.96 238.98 406.03 250.94 414.63 263.22 C 420.07 270.81 425.91 278.08 431.18 285.79 C 440.87 299.08 450.65 312.32 460.38 325.58 C 472.21 342.19 484.48 358.51 496.07 375.29 C 477.35 375.45 458.63 375.22 439.91 375.36 C 424.68 354.78 409.86 333.90 394.74 313.24 C 386.10 301.81 378.04 289.98 369.38 278.57 C 367.26 275.95 367.66 273.18 367.56 270.00 C 367.75 246.45 367.45 222.90 367.72 199.35 Z" fill="#c7a850" />
<path d="M 360.51 199.33 C 360.83 223.89 360.57 248.46 360.67 273.02 C 361.00 277.73 357.53 280.62 355.15 284.31 C 349.50 292.56 343.25 300.36 337.54 308.56 C 326.23 324.54 314.49 340.21 303.24 356.22 C 297.85 363.82 291.93 370.87 287.07 378.85 C 291.30 384.64 295.45 390.48 299.76 396.21 C 292.13 407.07 284.34 417.83 276.75 428.72 C 275.22 430.70 273.74 434.05 271.27 434.89 C 267.81 430.91 265.23 426.19 262.01 422.00 C 252.92 410.02 244.53 397.55 235.44 385.57 C 233.94 383.53 232.16 381.37 231.27 378.98 C 232.38 375.70 235.18 372.93 237.09 370.06 C 246.51 356.55 256.51 343.47 266.05 330.04 C 277.52 314.49 288.43 298.56 300.02 283.09 C 311.86 266.56 323.88 250.17 335.71 233.64 C 342.74 224.00 349.92 214.49 356.67 204.65 C 357.95 202.87 359.22 201.10 360.51 199.33 Z" fill="#c7a850" />
<path d="M 583.02 274.81 C 590.45 275.14 597.04 278.52 604.44 278.89 C 605.48 285.87 605.45 292.86 605.64 299.90 C 604.70 299.81 603.76 299.73 602.82 299.64 C 601.37 294.33 599.53 289.33 595.81 285.16 C 589.15 276.98 574.95 275.82 567.47 283.46 C 561.70 288.98 559.51 297.29 558.55 304.97 C 557.81 312.73 558.10 321.01 560.47 328.49 C 562.47 334.88 565.92 340.58 571.59 344.32 C 576.81 347.47 583.33 348.40 589.10 346.23 C 594.36 344.60 598.11 340.43 600.79 335.79 C 602.47 332.94 603.22 329.66 604.83 326.79 L 607.42 325.93 C 606.75 332.46 606.14 339.00 605.47 345.53 C 598.55 347.50 592.29 350.18 585.08 350.97 C 579.12 351.93 573.45 350.83 567.75 349.16 C 557.69 346.12 549.44 338.22 545.78 328.39 C 542.91 321.48 542.87 314.36 543.56 307.02 C 544.69 299.29 547.72 291.88 553.30 286.29 C 560.85 278.10 572.08 274.47 583.02 274.81 Z" fill="#1a332c" />
<path d="M 943.03 275.37 C 945.51 275.38 947.98 275.39 950.46 275.39 C 956.91 292.24 963.81 308.91 970.13 325.81 C 972.54 331.65 974.49 337.89 977.66 343.36 C 979.27 346.16 981.81 346.70 984.59 347.87 C 984.56 348.48 984.52 349.09 984.48 349.70 C 974.42 349.57 964.35 349.61 954.28 349.73 C 954.18 349.08 954.08 348.43 953.97 347.77 C 956.17 346.92 961.48 346.33 961.22 343.10 C 959.91 336.63 956.81 330.49 954.78 324.21 C 946.28 324.14 937.76 324.06 929.26 324.23 C 927.61 330.06 924.66 335.98 924.23 342.03 C 923.58 346.59 929.32 346.70 932.32 347.67 C 932.32 348.35 932.32 349.03 932.33 349.70 C 925.05 349.61 917.77 349.64 910.49 349.73 C 910.43 349.08 910.38 348.42 910.32 347.77 C 912.70 346.65 915.84 345.78 917.25 343.42 C 919.20 340.43 920.43 336.84 921.72 333.52 C 928.97 314.19 935.92 294.75 943.03 275.37 Z" fill="#1a332c" />
<path d="M 1199.17 275.36 C 1206.16 293.49 1213.36 311.53 1220.26 329.70 C 1222.14 334.13 1223.65 338.80 1225.93 343.04 C 1227.44 345.99 1230.60 346.69 1233.43 347.89 C 1233.43 348.49 1233.43 349.09 1233.44 349.69 C 1223.19 349.61 1212.94 349.59 1202.69 349.75 C 1202.66 349.08 1202.62 348.42 1202.59 347.76 C 1204.98 346.99 1207.94 346.54 1209.69 344.64 C 1210.15 341.88 1209.07 339.36 1208.17 336.81 C 1206.54 332.57 1204.83 328.37 1203.29 324.10 C 1194.84 324.19 1186.38 324.04 1177.93 324.26 C 1175.90 330.81 1173.24 336.62 1172.22 343.43 C 1174.62 346.01 1177.16 346.89 1180.50 347.73 C 1180.45 348.38 1180.40 349.03 1180.35 349.67 C 1173.12 349.64 1165.88 349.72 1158.64 349.66 C 1158.61 349.04 1158.57 348.42 1158.54 347.80 C 1161.15 346.61 1164.51 345.64 1166.07 343.07 C 1168.21 339.63 1169.57 335.62 1171.03 331.86 C 1177.89 313.07 1184.77 294.17 1191.75 275.43 C 1194.22 275.32 1196.70 275.36 1199.17 275.36 Z" fill="#1a332c" />
<path d="M 643.16 276.06 C 647.98 274.96 653.10 274.93 658.01 275.31 C 665.85 275.98 673.16 279.78 678.57 285.44 C 683.60 290.44 686.50 297.09 687.94 303.96 C 690.09 314.99 688.39 326.78 682.22 336.28 C 678.66 341.37 673.61 345.52 667.98 348.12 C 653.39 354.98 634.13 350.56 624.38 337.58 C 618.79 330.53 616.69 321.87 616.58 313.00 C 616.54 304.85 618.78 296.25 623.64 289.62 C 628.42 283.20 635.35 278.06 643.16 276.06 Z" fill="#1a332c" />
<path d="M 691.94 276.33 C 701.45 276.36 710.95 276.35 720.46 276.32 C 720.50 277.04 720.54 277.76 720.59 278.48 C 718.53 278.92 716.48 279.35 714.41 279.73 C 712.93 282.79 713.22 284.95 714.29 288.10 C 719.78 303.87 726.55 319.20 732.04 334.97 C 737.19 321.38 742.23 307.69 746.97 293.95 C 748.11 290.48 749.61 286.54 749.42 282.86 C 747.93 279.21 744.74 279.57 741.44 279.04 C 741.30 278.15 741.17 277.27 741.04 276.38 C 748.64 276.34 756.24 276.34 763.84 276.37 C 763.82 277.05 763.80 277.72 763.77 278.40 C 761.32 279.44 758.18 280.32 756.50 282.49 C 754.54 284.99 753.39 288.34 752.26 291.29 C 747.32 304.94 742.23 318.55 737.33 332.22 C 735.13 338.31 732.68 344.26 730.85 350.49 C 728.47 350.59 726.09 350.64 723.71 350.68 C 716.21 331.39 708.77 312.10 701.25 292.80 C 699.78 289.35 698.48 285.65 696.44 282.49 C 694.78 279.81 691.27 279.14 688.56 277.90 C 689.70 276.85 690.28 276.21 691.94 276.33 Z" fill="#1a332c" />
<path d="M 770.94 276.34 C 788.77 276.45 806.62 276.32 824.45 276.31 C 824.75 283.18 825.59 290.02 825.59 296.89 C 821.66 296.31 822.41 293.69 821.13 290.76 C 819.71 286.27 816.62 282.43 812.03 280.97 C 805.39 278.72 797.32 279.71 790.34 279.52 C 790.28 289.64 790.27 299.75 790.29 309.87 C 794.58 309.74 799.25 310.17 803.42 309.08 C 807.88 307.47 808.85 302.34 809.88 298.30 C 810.70 298.26 811.53 298.22 812.35 298.18 C 812.23 307.45 812.32 316.72 812.17 325.99 L 809.80 324.82 C 808.34 320.87 808.65 316.83 804.57 314.37 C 800.39 312.47 794.81 313.36 790.28 313.09 C 790.32 323.55 790.16 334.02 790.38 344.48 C 791.08 345.14 791.78 345.80 792.48 346.46 C 799.77 346.27 808.87 347.81 815.56 344.58 C 822.20 341.20 824.30 333.97 826.67 327.48 C 827.55 327.82 828.42 328.17 829.29 328.51 C 828.45 335.54 827.90 342.60 827.11 349.64 C 807.43 349.82 787.75 349.61 768.06 349.65 C 768.21 348.80 768.36 347.95 768.51 347.09 C 770.86 346.59 773.24 346.82 774.90 344.85 C 776.29 343.09 776.29 340.13 776.35 338.00 C 776.30 320.99 776.36 303.98 776.33 286.98 C 776.26 285.06 776.10 282.73 775.10 281.05 C 773.18 279.30 769.94 278.92 767.55 278.02 C 768.77 276.90 769.12 276.18 770.94 276.34 Z" fill="#1a332c" />
<path d="M 836.96 276.47 C 844.01 276.12 851.13 276.47 858.19 276.39 C 870.81 294.19 883.59 311.86 896.38 329.54 C 896.38 317.02 896.47 304.51 896.27 291.99 C 896.13 288.91 896.02 285.17 894.44 282.42 C 892.82 279.89 889.11 279.52 886.44 278.82 C 886.20 277.98 885.97 277.14 885.73 276.30 C 893.57 276.30 901.41 276.31 909.25 276.39 C 909.00 277.20 908.75 278.02 908.50 278.83 C 906.19 279.58 903.36 279.84 901.93 282.04 C 900.21 284.52 900.45 288.11 900.32 291.00 C 900.25 310.80 900.25 330.61 900.24 350.41 C 898.23 350.41 896.23 350.41 894.22 350.39 C 879.55 329.27 864.10 308.69 849.51 287.51 C 849.28 301.67 849.49 315.84 849.50 330.00 C 849.57 334.31 849.42 339.62 851.53 343.51 C 853.05 346.21 857.24 346.68 859.93 347.58 C 859.88 348.29 859.82 349.00 859.77 349.71 C 851.77 349.51 843.65 350.12 835.69 349.30 C 837.67 346.83 840.49 346.64 842.98 344.97 C 845.23 342.47 845.47 338.21 845.52 335.01 C 845.59 319.33 845.55 303.65 845.55 287.97 C 845.43 286.10 845.72 284.06 844.46 282.51 C 842.56 279.87 839.24 279.57 836.34 278.75 C 836.53 277.98 836.74 277.22 836.96 276.47 Z" fill="#1a332c" />
<path d="M 989.97 276.38 C 996.56 276.20 1003.18 276.46 1009.78 276.34 C 1016.90 286.48 1024.36 296.37 1031.46 306.53 C 1036.78 314.36 1042.75 321.77 1047.69 329.83 C 1048.37 315.51 1048.55 301.26 1047.52 286.95 C 1047.33 284.90 1046.63 282.30 1044.92 281.00 C 1042.15 279.33 1039.07 279.18 1036.71 276.75 C 1044.91 275.92 1053.34 276.33 1061.58 276.47 C 1061.19 277.28 1060.79 278.09 1060.39 278.90 C 1057.82 279.71 1055.02 279.96 1053.53 282.49 C 1051.94 285.54 1052.08 289.56 1051.81 292.92 C 1051.62 312.08 1051.89 331.24 1051.72 350.39 C 1049.81 350.38 1047.90 350.37 1045.99 350.35 C 1039.54 341.35 1032.98 332.43 1026.69 323.31 C 1018.03 311.61 1010.00 299.35 1000.95 287.95 C 1000.74 303.96 1000.76 320.00 1001.25 336.01 C 1001.43 338.84 1001.74 342.23 1003.65 344.48 C 1005.67 346.54 1009.43 346.97 1012.10 347.66 C 1012.05 348.34 1012.00 349.02 1011.96 349.69 C 1004.12 349.68 996.29 349.59 988.46 349.69 C 988.42 349.07 988.38 348.45 988.34 347.84 C 990.97 346.60 994.63 345.82 995.78 342.82 C 997.04 339.50 996.79 335.51 997.03 332.00 C 997.25 317.67 997.03 303.33 997.13 289.00 C 997.04 286.92 997.25 283.93 995.91 282.19 C 993.97 279.84 990.02 279.06 987.34 277.89 C 988.21 277.30 988.89 276.32 989.97 276.38 Z" fill="#1a332c" />
<path d="M 1067.82 276.28 C 1088.74 276.40 1109.65 276.48 1130.57 276.29 C 1130.94 283.12 1131.68 289.96 1131.68 296.80 C 1130.81 296.22 1128.97 295.97 1128.70 294.81 C 1126.94 290.33 1125.93 286.16 1122.00 282.98 C 1117.11 279.03 1111.64 279.50 1105.76 279.49 C 1105.80 297.33 1105.78 315.16 1105.75 333.00 C 1105.78 336.39 1105.51 340.31 1106.61 343.54 C 1108.01 346.41 1112.12 346.79 1114.84 347.66 C 1114.74 348.35 1114.64 349.05 1114.55 349.74 C 1104.04 349.47 1093.48 350.02 1083.00 349.40 C 1084.95 346.16 1089.33 347.13 1091.22 344.22 C 1092.13 342.02 1092.22 339.36 1092.28 337.00 C 1092.29 317.83 1092.16 298.67 1092.32 279.50 C 1086.20 279.47 1080.44 279.28 1075.60 283.65 C 1071.34 287.47 1071.07 292.43 1068.15 296.88 L 1066.63 295.21 C 1066.58 288.91 1067.52 282.58 1067.82 276.28 Z" fill="#1a332c" />
<path d="M 1244.00 276.32 C 1252.39 276.65 1260.87 275.93 1269.23 276.69 C 1267.23 279.49 1264.39 279.15 1261.65 280.74 C 1259.53 282.50 1259.73 285.51 1259.62 287.99 C 1259.62 304.66 1259.62 321.33 1259.62 338.00 C 1259.73 340.37 1259.50 343.68 1261.54 345.34 C 1263.49 346.63 1266.09 347.07 1268.33 347.69 L 1268.21 349.67 C 1257.98 349.64 1247.75 349.58 1237.51 349.68 C 1237.47 349.06 1237.43 348.44 1237.39 347.82 C 1239.87 346.96 1243.83 346.49 1245.04 343.83 C 1245.71 341.69 1245.58 339.23 1245.64 337.00 C 1245.58 320.01 1245.64 302.98 1245.53 286.00 C 1245.64 283.49 1244.69 281.73 1243.35 279.71 C 1241.12 279.25 1238.92 278.73 1236.72 278.15 C 1238.52 275.30 1241.09 276.60 1244.00 276.32 Z" fill="#1a332c" />
<path d="M 647.60 279.01 C 652.16 277.89 657.38 278.11 661.47 280.61 C 665.94 283.30 668.72 287.97 670.47 292.75 C 673.97 302.53 674.20 312.79 673.21 323.02 C 672.33 329.18 670.51 335.83 666.88 340.97 C 661.20 349.35 647.11 350.09 640.47 342.53 C 635.57 337.31 633.35 329.96 632.37 323.02 C 630.99 312.82 631.47 301.79 634.98 292.04 C 637.11 286.27 641.38 280.60 647.60 279.01 Z" fill="#f8f8f6" />
<path d="M 941.86 289.87 C 945.81 300.10 949.68 310.34 953.38 320.66 C 945.84 320.63 938.29 320.73 930.76 320.63 C 934.02 310.19 938.16 300.18 941.86 289.87 Z" fill="#f8f8f6" />
<path d="M 1190.52 289.72 C 1194.51 299.98 1198.24 310.32 1202.01 320.66 C 1194.40 320.60 1186.79 320.67 1179.18 320.63 C 1182.55 311.23 1186.01 301.88 1189.47 292.52 C 1189.82 291.58 1190.17 290.65 1190.52 289.72 Z" fill="#f8f8f6" />
<path d="M 343.47 324.49 C 350.67 334.65 358.00 344.68 365.20 354.83 C 370.81 362.93 376.96 370.65 382.53 378.78 C 359.64 410.47 337.02 442.39 314.13 474.08 C 296.69 498.38 279.53 522.79 262.03 547.03 C 259.04 551.34 256.07 555.66 252.82 559.79 C 252.72 534.87 252.71 509.89 252.76 484.97 C 252.53 481.07 254.91 478.92 256.91 475.93 C 280.32 443.72 303.29 411.21 326.56 378.90 C 322.31 373.12 318.09 367.30 313.98 361.41 C 323.08 349.03 331.87 336.35 340.76 323.83 C 341.49 322.42 342.89 323.56 343.47 324.49 Z" fill="#1a332c" />
<path d="M 595.50 378.56 C 598.43 379.59 601.44 380.12 604.51 380.53 C 604.83 387.73 605.76 394.79 605.33 402.01 C 603.88 401.03 602.67 400.74 602.21 398.91 C 600.37 393.63 598.38 388.71 594.15 384.85 C 586.75 377.50 573.46 377.58 566.48 385.48 C 560.03 392.59 558.04 403.70 558.25 413.00 C 558.07 422.76 560.57 434.27 567.30 441.70 C 574.24 449.63 587.58 450.42 595.37 443.34 C 600.28 438.81 602.49 433.20 604.79 427.11 C 605.63 427.23 606.46 427.35 607.30 427.48 C 606.33 433.88 605.84 440.38 605.34 446.83 C 597.59 448.41 590.81 451.59 583.00 452.00 C 573.56 452.41 564.16 450.37 556.74 444.26 C 547.97 437.55 543.40 426.89 543.25 415.99 C 542.98 409.85 543.65 403.85 546.19 398.21 C 550.17 388.03 559.22 380.72 569.49 377.51 C 578.10 374.90 587.07 375.68 595.50 378.56 Z" fill="#1a332c" />
<path d="M 645.48 376.66 C 658.79 373.80 673.76 379.13 681.70 390.32 C 689.58 401.62 690.87 417.17 685.91 429.90 C 682.26 439.27 674.55 446.85 665.02 450.12 C 656.88 452.73 647.96 452.75 639.89 449.88 C 633.38 447.43 627.60 443.12 623.58 437.42 C 618.18 430.07 616.30 420.97 616.61 411.98 C 616.92 402.26 620.71 392.55 627.80 385.79 C 632.71 381.24 638.89 377.94 645.48 376.66 Z" fill="#1a332c" />
<path d="M 805.02 376.10 C 811.08 376.50 815.99 379.72 822.23 378.91 C 822.62 385.52 823.06 392.20 822.69 398.82 C 821.89 398.43 821.10 398.02 820.33 397.59 C 818.30 393.20 817.31 388.79 813.83 385.16 C 808.69 378.99 798.04 377.46 791.89 382.86 C 788.24 386.00 787.67 390.79 788.82 395.24 C 790.60 399.71 795.01 402.06 799.16 403.93 C 806.87 407.24 816.48 410.39 822.27 416.72 C 830.28 425.20 828.25 440.24 818.97 446.96 C 813.39 451.08 805.81 452.52 799.00 451.99 C 791.31 451.52 784.52 447.91 776.77 447.59 C 776.80 440.50 776.62 433.44 776.33 426.35 C 777.28 426.35 778.23 426.35 779.18 426.35 C 780.98 432.54 783.28 438.41 787.99 443.01 C 793.10 447.99 801.06 449.77 807.85 447.74 C 813.28 445.98 816.68 440.63 816.18 434.97 C 815.92 429.78 812.42 426.34 808.22 423.81 C 801.91 420.23 794.76 418.34 788.48 414.58 C 784.67 412.43 781.41 409.59 779.47 405.61 C 775.94 398.34 777.09 388.72 783.00 383.01 C 788.82 377.34 797.09 375.36 805.02 376.10 Z" fill="#1a332c" />
<path d="M 1194.99 375.98 C 1202.50 376.27 1208.97 379.96 1216.44 380.40 C 1216.50 387.12 1216.89 393.82 1216.90 400.53 C 1216.08 400.52 1215.26 400.52 1214.44 400.51 C 1212.30 394.58 1210.09 389.06 1205.29 384.73 C 1198.26 377.75 1185.71 377.81 1178.60 384.62 C 1172.74 389.97 1170.53 398.37 1169.61 405.98 C 1169.14 413.13 1168.97 420.94 1170.98 427.88 C 1172.54 433.61 1175.08 439.36 1179.56 443.41 C 1184.34 447.65 1190.85 448.91 1197.05 447.85 C 1199.58 447.43 1202.75 446.59 1204.48 444.57 C 1205.09 441.14 1204.72 437.48 1204.82 434.00 C 1204.75 430.54 1205.16 426.86 1204.48 423.45 C 1203.31 419.89 1199.57 419.86 1196.49 419.07 L 1196.50 416.56 C 1206.51 416.66 1216.51 416.66 1226.52 416.60 C 1226.49 417.38 1226.46 418.16 1226.42 418.95 C 1224.41 419.56 1222.00 419.99 1220.24 421.20 C 1218.46 422.59 1218.60 424.94 1218.49 426.97 C 1218.40 433.03 1218.53 439.10 1218.48 445.16 C 1210.09 447.91 1203.00 451.62 1193.99 451.86 C 1184.74 452.42 1175.67 450.67 1168.30 444.78 C 1160.86 439.41 1156.54 431.19 1154.93 422.28 C 1153.58 412.85 1154.37 403.32 1158.99 394.85 C 1165.97 381.92 1180.49 374.80 1194.99 375.98 Z" fill="#1a332c" />
<path d="M 717.18 377.40 C 730.00 395.10 742.53 413.00 755.45 430.65 C 755.73 418.77 755.43 406.89 755.45 395.00 C 755.33 391.57 755.55 387.23 753.85 384.14 C 752.06 381.01 747.50 380.55 744.47 379.17 C 744.89 377.77 745.73 377.18 746.99 377.38 C 754.37 377.43 761.86 377.10 769.21 377.77 C 767.03 380.49 763.36 380.65 761.08 383.02 C 759.21 385.66 759.33 389.87 759.23 392.99 C 759.28 412.39 759.14 431.79 759.24 451.18 C 757.21 451.19 755.18 451.20 753.15 451.20 C 743.11 437.12 732.89 423.16 723.02 408.96 C 718.18 402.14 713.07 395.55 708.50 388.53 C 708.43 403.68 708.46 418.85 708.61 434.00 C 708.75 437.50 708.88 442.06 710.96 445.02 C 713.13 447.42 717.44 447.86 720.33 449.07 C 718.88 449.88 717.78 450.75 716.05 450.63 C 709.04 450.58 701.98 450.80 694.99 450.30 C 697.26 446.89 701.61 447.56 703.30 443.93 C 704.60 440.97 704.56 437.23 704.63 434.03 C 704.67 419.05 704.67 404.06 704.62 389.08 C 704.55 386.28 704.52 383.73 701.84 382.13 C 699.77 380.50 695.80 380.40 695.09 377.70 C 702.38 376.95 709.85 377.49 717.18 377.40 Z" fill="#1a332c" />
<path d="M 848.00 377.41 C 853.40 377.47 858.88 377.20 864.25 377.72 C 862.39 380.42 859.51 380.36 857.01 382.11 C 855.06 384.10 855.43 387.41 855.30 390.00 C 855.36 402.33 855.21 414.68 855.39 427.01 C 855.60 434.40 858.71 442.19 866.00 445.09 C 873.10 447.85 883.22 446.40 888.01 440.00 C 891.72 435.26 892.64 428.87 892.61 423.02 C 892.64 412.34 892.58 401.67 892.47 390.99 C 892.33 388.26 892.40 384.78 890.23 382.78 C 887.54 380.17 883.93 380.83 881.93 377.61 C 890.04 377.36 898.38 377.13 906.47 377.71 C 904.51 380.64 900.97 380.34 898.72 382.71 C 896.64 385.37 896.55 388.77 896.47 391.99 C 896.37 403.33 896.44 414.67 896.36 426.01 C 896.25 432.41 894.79 438.61 890.62 443.62 C 886.95 448.08 881.63 450.74 875.96 451.56 C 866.73 452.56 857.58 451.87 850.00 445.99 C 843.63 440.99 841.42 432.80 841.39 425.01 C 841.38 413.34 841.38 401.67 841.39 390.00 C 841.34 387.46 841.39 385.14 840.34 382.77 C 838.43 380.08 834.58 380.70 832.73 377.63 C 837.79 377.20 842.93 377.47 848.00 377.41 Z" fill="#1a332c" />
<path d="M 911.91 377.58 C 915.19 377.10 918.68 377.46 922.00 377.41 C 928.73 377.55 935.50 377.21 942.22 377.67 C 940.15 381.41 935.43 379.81 933.58 383.50 C 932.73 385.80 932.79 388.57 932.75 391.00 C 932.84 406.33 932.82 421.67 932.75 437.00 C 932.79 440.00 932.72 443.35 933.68 446.22 C 935.61 447.60 938.72 447.26 941.00 447.41 C 947.01 447.37 953.17 447.97 958.33 444.30 C 963.31 440.93 965.08 435.04 967.09 429.72 C 967.48 427.97 969.05 428.45 970.44 427.90 C 969.77 435.46 968.93 443.00 968.32 450.56 C 953.21 450.55 938.11 450.62 923.00 450.60 C 918.78 450.59 914.59 450.72 910.38 450.34 C 912.43 447.33 916.16 447.89 918.07 444.99 C 918.82 443.58 918.61 441.58 918.72 440.02 C 918.79 423.35 918.71 406.67 918.76 390.00 C 918.72 387.85 918.82 385.57 918.34 383.47 C 916.99 380.41 913.33 380.28 910.58 379.29 C 911.01 378.71 911.45 378.14 911.91 377.58 Z" fill="#1a332c" />
<path d="M 967.71 377.45 C 988.40 377.22 1009.47 377.57 1030.25 377.37 C 1030.53 384.29 1031.68 391.04 1031.46 397.97 L 1028.97 396.94 C 1026.68 392.59 1026.33 388.17 1022.32 384.70 C 1017.46 380.30 1011.52 380.81 1005.41 380.50 C 1005.36 400.01 1005.49 419.52 1005.41 439.03 C 1005.49 441.25 1005.25 444.31 1007.07 445.95 C 1009.17 447.67 1012.58 447.90 1015.09 448.74 C 1013.41 451.74 1010.88 450.40 1008.00 450.67 C 999.74 450.43 991.49 450.68 983.24 450.59 C 983.21 449.82 983.19 449.06 983.16 448.30 C 985.31 447.74 988.32 447.61 990.03 446.08 C 991.73 444.27 991.53 441.33 991.63 439.02 C 991.64 419.55 991.62 400.09 991.67 380.62 C 985.73 380.81 980.30 380.38 975.48 384.47 C 971.02 388.04 970.43 392.69 968.20 397.55 L 966.32 397.48 L 965.77 396.51 C 966.37 390.18 966.50 383.70 967.71 377.45 Z" fill="#1a332c" />
<path d="M 1044.00 377.35 C 1052.36 377.63 1060.78 377.02 1069.11 377.70 C 1067.01 380.76 1063.02 380.21 1060.95 382.97 C 1059.68 385.24 1059.85 388.46 1059.74 391.00 C 1059.72 406.33 1059.79 421.67 1059.70 437.00 C 1059.75 439.44 1059.67 442.25 1060.57 444.54 C 1062.14 447.54 1066.20 447.67 1069.03 448.76 C 1067.98 449.90 1067.74 450.74 1066.04 450.63 C 1056.79 450.70 1047.54 450.52 1038.29 450.57 C 1038.23 449.89 1038.17 449.21 1038.11 448.53 C 1040.05 447.93 1042.66 447.65 1044.14 446.17 C 1046.24 444.49 1045.63 441.39 1045.82 439.00 C 1045.66 421.09 1046.02 403.10 1045.62 385.22 C 1045.41 380.59 1040.92 380.43 1037.50 379.32 C 1038.90 376.26 1041.25 377.66 1044.00 377.35 Z" fill="#1a332c" />
<path d="M 1076.98 377.44 C 1082.98 377.28 1089.04 377.35 1095.04 377.45 C 1096.83 377.30 1097.33 378.39 1098.35 379.60 C 1105.43 388.93 1111.83 398.74 1118.84 408.13 C 1124.37 415.48 1129.47 423.13 1134.93 430.53 C 1134.83 417.35 1134.98 404.17 1134.79 391.00 C 1134.56 387.47 1134.73 383.74 1131.17 381.83 C 1128.48 380.10 1125.12 380.73 1124.03 377.47 C 1131.93 377.24 1139.85 377.44 1147.76 377.46 C 1147.76 378.10 1147.76 378.73 1147.76 379.36 C 1145.19 380.46 1141.32 381.32 1140.07 384.11 C 1138.92 386.81 1138.90 390.10 1138.79 392.99 C 1138.69 412.40 1138.76 431.82 1138.69 451.22 C 1136.72 451.20 1134.75 451.17 1132.78 451.13 C 1122.86 437.42 1112.90 423.72 1103.26 409.81 C 1098.27 402.66 1092.84 395.91 1088.19 388.56 C 1088.38 404.39 1088.08 420.18 1088.54 436.00 C 1088.69 438.72 1088.81 442.18 1090.35 444.53 C 1092.11 447.21 1095.91 447.56 1098.77 448.36 C 1098.77 449.12 1098.76 449.87 1098.75 450.63 C 1090.71 450.48 1082.59 450.98 1074.59 450.27 C 1077.11 446.79 1081.28 447.71 1083.05 443.91 C 1084.01 441.12 1084.16 437.98 1084.28 435.04 C 1084.56 420.36 1084.31 405.67 1084.48 391.00 C 1084.46 389.06 1084.55 387.01 1084.12 385.12 C 1082.34 381.34 1078.25 380.60 1074.72 379.25 C 1075.50 378.51 1075.78 377.33 1076.98 377.44 Z" fill="#1a332c" />
<path d="M 647.21 380.22 C 652.21 378.90 658.18 379.48 662.50 382.47 C 666.88 385.66 669.26 390.36 670.95 395.40 C 673.84 404.11 673.97 412.96 673.33 422.03 C 672.62 428.79 670.75 436.16 666.79 441.79 C 661.14 449.87 648.06 450.78 641.09 443.91 C 634.57 437.69 632.67 428.66 631.91 420.02 C 631.28 410.69 631.65 400.13 635.46 391.44 C 637.68 386.50 641.75 381.58 647.21 380.22 Z" fill="#f8f8f6" />
<path d="M 174.19 382.33 C 197.37 414.78 220.91 447.50 244.16 479.89 C 246.43 482.68 245.64 485.63 245.83 489.00 C 245.79 512.48 245.97 535.96 245.78 559.44 C 230.83 538.97 215.98 518.39 201.24 497.76 C 188.68 480.33 175.92 463.05 163.48 445.53 C 148.31 424.42 132.97 403.47 117.91 382.29 C 136.67 382.34 155.43 382.22 174.19 382.33 Z" fill="#1a332c" />
<path d="M 440.24 382.51 C 443.75 381.94 447.45 382.30 451.00 382.27 C 466.15 382.31 481.30 382.13 496.45 382.30 C 491.62 389.16 486.39 395.71 481.67 402.65 C 475.14 412.12 468.14 421.24 461.69 430.77 C 440.53 459.94 419.67 489.33 398.57 518.52 C 388.63 532.34 378.93 546.32 368.61 559.86 C 368.34 537.58 368.52 515.29 368.43 493.00 C 368.47 489.54 368.08 485.89 368.71 482.48 C 369.76 479.92 371.81 477.67 373.41 475.43 C 393.07 448.03 412.63 420.60 432.22 393.15 C 434.84 389.67 437.01 385.44 440.24 382.51 Z" fill="#c7a850" />
<path d="M 342.26 455.39 C 347.38 461.11 351.33 467.92 355.94 474.07 C 357.76 476.72 360.29 479.36 361.38 482.39 C 361.93 485.86 361.60 489.50 361.63 493.00 C 361.55 515.28 361.77 537.57 361.53 559.84 C 351.39 546.49 341.94 532.61 331.99 519.12 C 326.02 510.79 319.90 502.53 314.24 493.98 C 321.71 483.83 328.95 473.51 336.17 463.18 C 338.02 460.54 339.90 457.60 342.26 455.39 Z" fill="#c7a850" />
<path d="M 638.12 485.45 C 637.83 487.15 637.54 488.86 637.24 490.56 C 636.05 490.54 634.85 490.52 633.65 490.49 C 634.05 488.89 634.43 487.28 634.88 485.69 C 635.95 485.59 637.04 485.51 638.12 485.45 Z" fill="#1a332c" />
<path d="M 844.70 485.48 C 844.30 487.20 843.88 488.92 843.46 490.63 C 842.37 490.62 841.28 490.61 840.19 490.60 C 840.42 488.98 840.63 487.35 840.92 485.74 C 842.17 485.62 843.43 485.56 844.70 485.48 Z" fill="#1a332c" />
<path d="M 1217.71 485.74 C 1218.73 485.49 1219.76 485.29 1220.79 485.13 C 1219.79 490.73 1218.63 496.32 1217.53 501.91 C 1216.54 507.05 1214.97 512.18 1214.53 517.39 C 1216.21 518.30 1217.90 518.28 1219.74 518.54 C 1219.71 519.24 1219.67 519.94 1219.63 520.65 C 1216.90 521.10 1214.59 521.19 1211.86 520.62 C 1211.50 519.72 1211.14 518.82 1210.78 517.93 C 1212.01 511.11 1213.73 504.40 1215.01 497.59 C 1215.90 493.66 1216.38 489.54 1217.71 485.74 Z" fill="#1a332c" />
<path d="M 1033.62 485.81 L 1036.73 485.15 C 1035.19 494.82 1032.87 504.37 1030.88 513.95 C 1030.33 516.23 1030.79 518.36 1031.07 520.63 C 1029.92 520.71 1028.76 520.79 1027.60 520.86 C 1027.42 519.77 1027.23 518.69 1027.04 517.60 C 1023.39 520.02 1020.20 522.30 1015.55 521.22 C 1010.01 519.66 1007.86 513.22 1009.11 508.03 C 1010.39 501.64 1015.82 494.68 1022.96 495.25 C 1026.55 495.42 1028.26 497.78 1030.42 500.24 C 1031.41 495.47 1031.86 490.36 1033.62 485.81 Z" fill="#1a332c" />
<path d="M 560.96 486.78 C 561.98 486.65 563.00 486.54 564.03 486.44 C 566.27 497.92 568.72 509.36 570.81 520.88 C 569.62 520.87 568.42 520.85 567.22 520.83 C 566.60 517.42 566.00 513.99 565.42 510.56 C 560.39 510.48 555.37 510.47 550.34 510.53 C 548.38 513.82 546.75 517.39 544.51 520.50 C 543.25 520.75 541.97 520.94 540.68 521.07 C 546.99 509.40 554.03 498.08 560.96 486.78 Z" fill="#1a332c" />
<path d="M 699.40 487.48 C 700.50 487.27 701.62 487.09 702.74 486.96 C 702.14 489.82 701.43 492.66 700.73 495.51 C 702.91 495.61 705.09 495.72 707.27 495.89 C 705.55 499.16 703.34 498.16 700.28 498.49 C 699.24 504.02 697.88 509.52 697.00 515.07 C 696.59 516.75 697.54 517.28 698.44 518.47 C 700.18 518.03 701.92 517.64 703.67 517.28 C 702.77 518.93 703.09 520.44 701.00 520.79 C 698.64 521.54 696.07 521.72 694.06 520.04 C 692.57 518.38 693.29 516.43 693.58 514.47 C 694.74 509.13 696.03 503.82 697.09 498.45 C 695.78 498.40 694.47 498.33 693.17 498.26 C 694.54 495.89 695.22 495.82 697.68 495.17 C 698.24 492.61 698.61 489.98 699.40 487.48 Z" fill="#1a332c" />
<path d="M 1233.47 487.08 C 1232.95 489.90 1232.47 492.73 1232.06 495.57 C 1233.86 495.58 1235.65 495.59 1237.45 495.60 C 1237.41 496.48 1237.37 497.36 1237.33 498.24 C 1235.33 498.30 1233.33 498.36 1231.34 498.41 C 1229.86 504.76 1228.57 511.18 1227.48 517.61 C 1230.01 517.72 1232.55 517.71 1235.08 517.77 C 1232.86 522.44 1228.59 521.33 1224.48 520.32 C 1223.85 513.19 1226.67 505.81 1227.88 498.63 C 1226.52 498.46 1225.15 498.29 1223.79 498.11 C 1225.18 495.90 1226.16 495.66 1228.51 494.98 C 1229.06 492.50 1229.50 490.01 1230.01 487.52 C 1231.17 487.34 1232.31 487.22 1233.47 487.08 Z" fill="#1a332c" />
<path d="M 561.73 490.73 C 562.94 496.41 563.90 502.13 565.01 507.82 C 560.56 507.74 556.11 507.73 551.66 507.68 C 555.10 502.08 558.29 496.34 561.73 490.73 Z" fill="#f8f8f6" />
<path d="M 621.17 495.88 C 623.92 496.90 624.92 499.13 626.37 501.44 C 625.30 501.71 624.24 501.98 623.16 502.24 C 621.66 500.69 620.36 498.48 617.99 498.29 C 611.60 497.34 606.51 504.19 606.37 509.98 C 606.12 514.14 608.53 518.15 612.96 518.43 C 616.55 518.64 618.56 516.55 620.97 514.32 C 621.99 514.52 623.01 514.73 624.02 514.94 C 621.49 518.47 618.52 521.21 613.96 521.46 C 609.36 521.92 605.18 519.53 603.62 515.11 C 602.42 510.29 603.05 505.11 606.17 501.13 C 609.53 496.39 615.54 493.95 621.17 495.88 Z" fill="#1a332c" />
<path d="M 657.87 496.08 C 662.52 497.85 663.54 505.64 658.90 507.92 C 654.15 510.37 647.40 509.44 642.19 509.67 C 642.64 511.59 642.96 513.67 643.77 515.48 C 645.51 518.68 649.81 519.42 652.95 518.06 C 655.63 516.68 657.30 514.39 660.45 513.90 C 658.21 521.21 647.63 523.99 642.07 518.93 C 637.86 514.31 638.16 507.51 641.39 502.43 C 644.58 496.82 651.71 493.64 657.87 496.08 Z" fill="#1a332c" />
<path d="M 738.57 495.52 C 743.79 496.70 745.70 502.20 745.36 507.02 C 744.96 514.29 738.93 522.18 731.02 521.40 C 727.53 521.13 725.76 518.83 723.66 516.36 C 722.98 521.14 721.89 525.83 721.07 530.58 C 719.85 530.69 718.62 530.80 717.40 530.91 C 719.28 521.30 721.50 511.76 723.24 502.12 C 723.64 500.14 723.98 498.04 724.80 496.18 L 727.82 495.26 C 727.50 496.82 727.17 498.38 726.77 499.92 C 730.19 496.81 733.70 494.44 738.57 495.52 Z" fill="#1a332c" />
<path d="M 799.89 495.39 C 799.60 496.83 799.06 498.30 798.95 499.76 C 799.41 500.47 799.98 501.11 800.50 501.78 L 799.23 503.93 C 796.88 508.80 796.63 514.80 795.26 520.01 C 793.22 521.28 792.08 519.52 792.35 517.57 C 793.71 510.31 795.45 503.11 796.68 495.81 C 797.75 495.65 798.82 495.51 799.89 495.39 Z" fill="#1a332c" />
<path d="M 824.05 495.26 C 826.78 495.08 829.29 496.26 830.15 498.99 C 831.10 502.24 829.92 506.28 829.31 509.54 C 828.47 513.19 828.04 517.04 826.78 520.56 C 825.72 520.96 824.65 521.34 823.57 521.69 C 824.34 515.22 826.86 508.75 826.89 502.25 C 826.97 499.90 825.30 498.38 823.01 498.34 C 818.87 498.46 815.30 502.35 814.22 506.14 C 812.74 511.19 812.18 516.46 810.60 521.49 C 809.58 521.18 808.57 520.86 807.55 520.55 C 808.68 515.37 810.07 510.19 810.80 504.94 C 810.90 502.94 811.36 499.85 809.20 498.74 C 806.33 497.33 804.04 499.31 801.68 500.73 C 800.89 500.20 800.10 499.68 799.31 499.14 C 803.09 496.75 806.34 494.23 811.08 495.69 C 813.62 496.58 813.74 498.77 814.70 500.96 C 817.32 498.03 819.88 495.49 824.05 495.26 Z" fill="#1a332c" />
<path d="M 842.59 495.33 C 840.78 503.81 839.05 512.31 837.28 520.81 C 836.11 520.82 834.94 520.83 833.78 520.84 C 835.59 512.99 836.93 505.01 838.86 497.20 C 839.22 495.20 841.02 495.86 842.59 495.33 Z" fill="#1a332c" />
<path d="M 865.05 497.77 C 864.75 498.65 864.45 499.54 864.15 500.42 C 860.51 498.60 856.95 496.89 852.92 498.91 C 850.64 500.27 850.54 502.31 850.04 504.66 C 853.72 506.57 858.22 507.05 861.63 509.33 C 865.19 512.18 862.78 517.54 859.68 519.69 C 854.44 522.89 848.30 521.63 843.31 518.58 C 843.46 517.66 843.62 516.74 843.78 515.82 C 848.16 517.20 852.23 520.06 856.93 518.03 C 859.67 516.60 859.54 514.41 859.89 511.71 C 856.58 510.28 853.07 509.47 849.74 508.12 C 848.23 507.50 847.37 506.55 846.65 505.09 C 846.80 501.29 848.61 497.71 852.29 496.27 C 856.73 494.34 861.09 495.24 865.05 497.77 Z" fill="#1a332c" />
<path d="M 886.80 496.22 C 890.91 498.12 892.52 504.68 888.44 507.44 C 883.71 510.58 876.14 509.45 870.70 509.55 C 871.29 511.99 871.38 514.89 873.30 516.73 C 875.33 518.94 878.29 519.04 881.02 518.25 C 884.04 516.91 885.76 514.39 889.40 514.40 C 885.84 520.33 878.35 523.72 871.99 519.96 C 866.64 515.96 866.60 508.21 869.81 502.84 C 873.13 496.97 880.30 493.23 886.80 496.22 Z" fill="#1a332c" />
<path d="M 913.92 498.59 C 913.29 499.18 912.66 499.77 912.03 500.37 C 908.57 498.36 904.78 496.91 900.96 499.03 C 899.06 500.52 897.17 504.48 900.41 505.58 C 904.37 507.13 908.32 507.76 911.73 510.52 C 911.52 513.01 911.86 515.35 910.31 517.45 C 907.50 521.40 902.41 522.02 897.96 521.23 C 895.92 520.78 893.23 519.92 892.15 517.99 C 892.41 517.14 892.69 516.30 893.00 515.47 C 896.96 517.81 900.32 519.98 905.06 518.06 C 907.21 517.17 909.86 513.19 907.31 511.46 C 904.08 509.32 898.25 509.39 895.78 506.13 C 894.53 502.77 896.10 498.98 899.09 497.11 C 903.97 494.20 909.70 494.78 913.92 498.59 Z" fill="#1a332c" />
<path d="M 991.53 495.80 C 996.01 494.48 1000.89 495.38 1003.58 499.47 C 1009.10 508.32 1001.48 521.79 990.99 521.56 C 986.73 521.60 983.33 519.22 981.80 515.28 C 979.49 507.57 983.86 498.45 991.53 495.80 Z" fill="#1a332c" />
<path d="M 1055.98 495.93 C 1060.42 497.43 1062.51 504.34 1058.26 507.24 C 1053.72 510.59 1046.39 509.49 1041.04 509.51 C 1041.36 511.76 1041.20 514.65 1042.71 516.43 C 1044.84 518.99 1049.03 519.33 1051.80 517.71 C 1054.39 516.37 1055.77 514.23 1058.97 514.61 C 1055.49 520.22 1048.82 523.37 1042.59 520.28 C 1036.68 516.91 1036.21 508.83 1039.24 503.35 C 1042.47 497.40 1049.27 493.58 1055.98 495.93 Z" fill="#1a332c" />
<path d="M 1153.22 495.81 C 1156.72 497.09 1157.45 499.98 1158.70 503.11 C 1157.45 505.20 1156.68 507.26 1154.27 508.26 C 1149.45 510.28 1143.13 509.53 1137.98 509.55 C 1138.68 512.91 1138.76 516.10 1142.08 518.01 C 1146.72 519.90 1150.33 517.61 1153.61 514.49 C 1154.52 514.62 1155.44 514.74 1156.36 514.87 C 1152.63 520.28 1145.96 523.37 1139.72 520.24 C 1134.29 517.00 1133.75 508.79 1136.66 503.68 C 1139.73 497.61 1146.42 493.55 1153.22 495.81 Z" fill="#1a332c" />
<path d="M 1180.40 497.93 C 1180.57 499.34 1181.03 499.60 1179.37 500.13 C 1175.94 498.81 1173.25 497.22 1169.44 498.47 C 1166.87 499.29 1166.45 501.98 1165.40 504.14 C 1168.96 506.58 1173.21 506.96 1176.88 509.01 C 1179.41 510.46 1179.12 513.94 1178.23 516.28 C 1176.26 520.16 1172.14 521.64 1167.99 521.49 C 1164.07 521.24 1159.75 520.54 1158.88 515.98 C 1163.83 516.68 1166.86 520.13 1172.14 518.15 C 1175.11 517.04 1174.99 514.54 1175.78 511.91 C 1172.15 510.12 1168.00 509.53 1164.48 507.59 C 1161.15 505.60 1162.54 500.98 1164.58 498.56 C 1168.55 494.52 1176.17 493.99 1180.40 497.93 Z" fill="#1a332c" />
<path d="M 1258.23 497.92 C 1258.13 498.82 1258.01 499.71 1257.86 500.60 C 1254.87 499.20 1252.46 497.55 1248.98 498.11 C 1245.70 498.35 1244.76 500.92 1243.09 503.27 C 1246.56 507.72 1252.44 506.33 1255.98 510.06 C 1258.51 513.70 1255.54 519.05 1251.78 520.50 C 1247.21 522.38 1240.47 521.91 1237.03 518.02 C 1237.05 516.75 1237.59 516.05 1238.65 515.91 C 1241.88 517.31 1244.21 519.27 1248.00 518.68 C 1251.49 518.43 1254.06 515.62 1253.19 512.03 C 1249.86 509.12 1243.28 509.68 1240.69 506.02 C 1239.86 502.53 1241.48 498.39 1244.80 496.78 C 1248.84 494.64 1254.80 494.55 1258.23 497.92 Z" fill="#1a332c" />
<path d="M 582.83 495.04 C 582.72 496.92 582.56 498.80 582.35 500.67 C 585.36 496.99 589.22 494.90 594.09 495.45 C 596.88 495.78 598.82 498.15 598.64 500.96 C 598.67 507.56 596.25 514.13 595.42 520.69 C 594.34 520.91 593.26 521.13 592.18 521.34 C 592.84 513.83 595.44 507.03 594.73 499.36 C 589.14 496.60 583.28 500.82 581.63 506.20 C 580.30 511.02 579.55 515.99 578.45 520.87 C 577.32 520.85 576.19 520.84 575.07 520.82 C 576.58 512.82 578.38 504.88 579.90 496.88 C 580.87 496.25 581.84 495.64 582.83 495.04 Z" fill="#1a332c" />
<path d="M 632.94 496.02 L 636.10 495.34 C 634.54 503.34 632.96 511.36 631.18 519.30 C 630.77 521.42 629.25 520.87 627.54 521.63 C 628.38 515.32 630.09 509.25 631.23 503.00 C 631.71 500.68 632.07 498.23 632.94 496.02 Z" fill="#1a332c" />
<path d="M 669.62 496.08 L 672.63 495.22 C 672.39 496.74 672.14 498.26 671.88 499.78 C 675.70 496.78 679.93 494.14 684.97 495.79 C 687.81 497.05 688.21 500.24 687.98 502.99 C 687.27 509.03 685.64 514.98 684.47 520.94 C 683.40 520.88 682.32 520.81 681.25 520.74 C 682.19 515.13 683.76 509.62 684.50 503.98 C 684.72 501.59 684.46 499.16 681.80 498.42 C 677.04 497.85 672.03 502.03 670.77 506.50 C 669.52 511.11 668.71 515.87 668.05 520.60 C 666.82 520.72 665.59 520.83 664.36 520.94 C 665.57 514.66 666.97 508.42 668.10 502.13 C 668.51 500.13 668.80 497.96 669.62 496.08 Z" fill="#1a332c" />
<path d="M 753.20 495.65 C 754.27 495.64 755.34 495.64 756.41 495.63 C 755.95 497.59 755.46 499.54 754.94 501.48 C 756.43 499.88 757.96 497.99 759.82 496.81 C 761.45 495.93 763.50 495.72 765.28 495.30 C 765.12 496.33 764.95 497.37 764.79 498.40 C 760.35 499.32 756.52 500.95 754.85 505.49 C 753.38 510.64 752.57 516.00 751.36 521.22 C 750.26 521.20 749.17 521.17 748.07 521.15 C 749.53 512.61 751.49 504.15 753.20 495.65 Z" fill="#1a332c" />
<path d="M 774.18 496.15 C 778.75 494.30 784.57 495.19 787.21 499.70 C 791.92 508.70 785.34 521.14 774.99 521.51 C 770.44 521.89 766.60 519.03 765.18 514.80 C 762.83 507.62 767.31 498.99 774.18 496.15 Z" fill="#1a332c" />
<path d="M 796.68 495.81 C 795.45 503.11 793.71 510.31 792.35 517.57 C 792.08 519.52 793.22 521.28 795.26 520.01 C 796.63 514.80 796.88 508.80 799.23 503.93 C 797.62 509.45 797.87 516.11 795.14 521.16 C 793.98 521.19 792.82 521.21 791.66 521.21 C 791.90 515.26 793.33 509.60 794.47 503.79 C 795.02 501.07 795.65 498.39 796.68 495.81 Z" fill="#f8f8f6" />
<path d="M 943.43 495.89 L 946.47 495.37 C 945.99 497.20 945.48 499.01 944.92 500.81 C 948.18 497.13 951.87 494.44 957.09 495.60 C 959.91 496.29 960.20 498.45 961.27 500.77 C 963.49 498.35 965.55 496.18 968.93 495.51 C 971.87 494.85 975.14 495.57 976.47 498.50 C 977.43 503.08 976.00 508.54 975.19 513.10 C 974.63 515.61 974.43 518.43 973.35 520.76 L 970.34 521.67 C 970.91 516.03 972.46 510.62 973.33 505.05 C 973.55 502.68 973.89 500.11 971.49 498.74 C 967.72 497.17 963.54 500.42 961.75 503.57 C 959.12 508.73 959.37 515.35 957.36 520.72 L 954.33 521.67 C 954.97 515.72 956.65 509.95 957.43 504.03 C 957.70 501.74 957.41 499.12 954.80 498.49 C 950.58 497.59 946.62 501.39 945.09 505.00 C 943.12 510.03 942.99 515.76 941.34 520.85 L 938.13 521.61 C 938.90 515.69 940.39 509.85 941.47 503.96 C 942.04 501.28 942.41 498.43 943.43 495.89 Z" fill="#1a332c" />
<path d="M 1067.94 495.97 L 1071.19 495.19 C 1070.70 497.30 1070.16 499.40 1069.58 501.49 C 1072.47 498.00 1074.87 495.88 1079.56 495.22 C 1079.50 496.29 1079.43 497.35 1079.35 498.42 C 1075.00 499.33 1071.11 500.94 1069.47 505.41 C 1068.05 510.48 1067.18 515.73 1066.14 520.89 C 1064.95 520.87 1063.75 520.84 1062.56 520.82 C 1064.59 512.61 1065.61 504.07 1067.94 495.97 Z" fill="#1a332c" />
<path d="M 1084.28 496.44 C 1085.16 495.99 1086.05 495.56 1086.96 495.17 C 1086.78 497.02 1086.56 498.86 1086.32 500.71 C 1088.78 498.13 1091.27 495.98 1094.94 495.53 C 1098.09 495.02 1101.17 495.56 1102.48 498.80 C 1103.32 503.31 1101.86 508.53 1101.02 513.00 C 1100.47 515.53 1100.20 518.27 1099.25 520.68 L 1096.23 521.67 C 1096.62 515.98 1098.28 510.66 1099.18 505.07 C 1099.66 502.76 1098.92 500.81 1098.39 498.61 C 1095.05 498.27 1092.25 498.28 1089.60 500.62 C 1083.63 504.92 1085.15 514.51 1082.42 520.81 L 1079.37 521.69 C 1080.21 515.03 1081.83 508.59 1082.97 501.99 C 1083.36 500.16 1083.56 498.17 1084.28 496.44 Z" fill="#1a332c" />
<path d="M 1123.73 496.02 L 1126.91 495.27 C 1126.43 497.41 1125.89 499.53 1125.27 501.63 C 1126.77 499.81 1128.42 497.67 1130.51 496.53 C 1132.16 495.72 1134.25 495.65 1136.03 495.35 C 1135.41 499.19 1132.84 498.55 1130.07 500.12 C 1127.31 501.50 1125.28 504.15 1124.62 507.17 C 1123.52 511.91 1122.78 516.72 1121.50 521.43 C 1120.44 521.19 1119.39 520.94 1118.33 520.69 C 1120.43 512.53 1121.64 504.14 1123.73 496.02 Z" fill="#1a332c" />
<path d="M 1187.72 496.00 L 1190.86 495.25 C 1190.03 501.22 1188.30 507.06 1187.53 513.03 C 1187.18 515.51 1188.63 518.05 1191.23 518.33 C 1195.29 518.56 1199.29 515.50 1200.85 511.85 C 1202.98 506.92 1202.97 501.08 1204.79 496.07 L 1207.90 495.29 C 1207.09 503.66 1203.06 512.56 1204.51 520.84 C 1203.15 520.81 1201.79 520.77 1200.43 520.72 C 1200.59 519.01 1200.79 517.30 1201.00 515.60 C 1198.64 517.99 1196.56 520.27 1193.16 521.13 C 1190.27 521.78 1186.78 521.76 1184.96 519.02 C 1183.01 515.90 1184.25 512.15 1184.85 508.81 C 1185.91 504.58 1186.33 500.12 1187.72 496.00 Z" fill="#1a332c" />
<path d="M 656.48 498.62 C 659.51 499.97 659.71 505.27 656.22 506.19 C 652.09 507.69 647.00 507.11 642.65 507.15 C 643.85 504.76 644.99 501.83 647.17 500.17 C 649.66 498.08 653.47 497.41 656.48 498.62 Z" fill="#f8f8f6" />
<path d="M 732.55 498.74 C 735.77 497.60 739.44 498.77 741.03 501.86 C 743.60 508.07 740.51 515.73 734.12 518.05 C 730.68 519.26 727.08 517.46 725.61 514.21 C 724.35 508.22 726.26 500.98 732.55 498.74 Z" fill="#f8f8f6" />
<path d="M 775.57 498.76 C 778.83 497.48 782.61 498.50 784.28 501.70 C 787.61 507.78 783.50 516.30 777.07 518.28 C 773.64 519.25 770.31 517.54 768.91 514.34 C 766.68 508.50 769.71 501.11 775.57 498.76 Z" fill="#f8f8f6" />
<path d="M 885.11 498.49 C 888.27 499.76 888.59 504.75 885.41 506.19 C 881.07 507.74 875.74 507.14 871.19 507.14 C 872.55 504.48 873.57 501.89 875.98 499.99 C 878.45 497.94 882.12 497.56 885.11 498.49 Z" fill="#f8f8f6" />
<path d="M 992.48 498.61 C 995.88 497.54 999.61 498.75 1001.13 502.10 C 1003.86 508.35 999.78 516.82 993.09 518.38 C 989.26 519.11 985.98 516.74 984.94 513.10 C 983.37 507.72 987.13 500.39 992.48 498.61 Z" fill="#f8f8f6" />
<path d="M 1020.45 498.54 C 1023.51 497.65 1026.61 498.83 1028.26 501.53 C 1030.30 504.43 1028.85 508.76 1027.83 511.82 C 1026.52 515.64 1022.98 518.18 1018.98 518.44 C 1015.94 518.39 1013.60 516.28 1012.67 513.48 C 1010.78 507.67 1014.72 500.42 1020.45 498.54 Z" fill="#f8f8f6" />
<path d="M 1054.78 498.45 C 1057.57 499.49 1058.79 504.28 1055.63 505.67 C 1051.36 507.75 1045.57 507.25 1040.98 506.81 C 1042.54 504.09 1043.86 501.40 1046.51 499.55 C 1048.82 497.90 1052.12 497.72 1054.78 498.45 Z" fill="#f8f8f6" />
<path d="M 1151.80 498.29 C 1155.35 499.14 1155.92 504.93 1152.45 506.21 C 1148.11 507.57 1143.02 507.12 1138.51 507.13 C 1139.95 504.34 1141.11 501.54 1143.80 499.69 C 1146.08 498.04 1149.11 497.75 1151.80 498.29 Z" fill="#f8f8f6" />
<path d="M 916.67 515.74 C 917.79 515.78 918.90 515.81 920.02 515.85 C 919.56 520.55 918.68 522.72 915.70 526.34 C 915.87 524.15 916.17 522.00 915.86 519.80 C 915.97 519.22 916.09 518.63 916.20 518.05 C 916.35 517.28 916.51 516.51 916.67 515.74 Z" fill="#1a332c" />
<path d="M 1261.53 515.76 C 1262.57 515.79 1263.61 515.82 1264.65 515.85 C 1264.30 517.67 1263.95 519.48 1263.58 521.29 C 1262.54 521.17 1261.50 521.05 1260.46 520.92 C 1260.81 519.20 1261.17 517.48 1261.53 515.76 Z" fill="#1a332c" />
</svg>