<?xml version="1.0" standalone="no"?>
<!DOCTYPE svg PUBLIC "-//W3C//DTD SVG 20010904//EN"
 "http://www.w3.org/TR/2001/REC-SVG-20010904/DTD/svg10.dtd">
<svg version="1.0" xmlns="http://www.w3.org/2000/svg"
 width="1408.000000pt" height="768.000000pt" viewBox="0 0 1408.000000 768.000000"
 preserveAspectRatio="xMidYMid meet">

<g transform="translate(0.000000,768.000000) scale(0.100000,-0.100000)"
fill="#000000" stroke="none">
<path d="M2464 5659 c-6 -8 -211 -297 -456 -644 -245 -346 -524 -741 -621
-877 -96 -135 -173 -249 -169 -252 3 -3 130 -6 282 -6 l276 0 64 93 c35 50
193 277 352 504 l288 412 -2 392 c-2 291 -6 388 -14 378z"/>
<path d="M2558 5278 l4 -393 95 -130 c52 -71 99 -130 104 -130 9 0 279 373
279 384 0 3 -50 74 -111 156 -60 83 -167 230 -237 327 -70 98 -129 178 -132
178 -3 0 -4 -177 -2 -392z"/>
<path d="M5853 4900 c-198 -42 -312 -196 -301 -409 8 -157 91 -279 226 -332
82 -33 218 -31 322 4 84 28 83 26 93 145 9 95 -7 95 -53 -1 -45 -93 -93 -129
-179 -135 -108 -8 -188 52 -234 175 -29 80 -31 271 -3 355 20 63 72 130 117
153 35 19 130 19 172 1 48 -20 95 -75 122 -142 34 -84 45 -80 45 14 0 112 -7
142 -35 142 -12 0 -44 7 -71 15 -63 19 -168 26 -221 15z"/>
<path d="M6574 4896 c-106 -26 -194 -100 -242 -205 -37 -80 -43 -212 -13 -310
28 -93 101 -175 193 -217 54 -24 76 -28 153 -29 78 0 98 4 152 29 81 37 152
111 184 191 33 85 34 244 1 326 -43 108 -137 189 -251 215 -68 16 -109 16
-177 0z m192 -53 c143 -102 152 -520 14 -636 -76 -64 -189 -54 -253 22 -14 17
-36 57 -48 88 -20 51 -23 76 -24 198 0 110 4 152 18 195 22 65 57 114 101 141
43 28 148 23 192 -8z"/>
<path d="M9619 4873 c-6 -16 -56 -152 -111 -303 -120 -329 -133 -359 -175
-385 -54 -33 -41 -40 74 -38 108 2 145 15 79 27 -20 4 -40 15 -46 25 -10 19 2
78 33 166 l14 40 130 3 130 3 33 -90 c38 -107 37 -132 -8 -146 -18 -5 -31 -13
-29 -18 1 -5 6 -8 10 -8 4 1 72 1 152 1 80 0 145 4 145 8 0 4 -13 13 -29 19
-43 16 -41 12 -274 615 l-42 108 -38 0 c-32 0 -39 -4 -48 -27z m60 -279 c28
-77 51 -143 51 -147 0 -4 -49 -7 -110 -7 -91 0 -110 3 -110 15 0 27 103 296
110 288 4 -4 30 -71 59 -149z"/>
<path d="M12051 4586 c-63 -173 -123 -332 -135 -353 -12 -22 -35 -44 -54 -52
-17 -8 -32 -18 -32 -23 0 -4 50 -8 110 -8 67 0 110 4 110 10 0 6 -8 10 -18 10
-28 0 -62 29 -62 53 0 12 13 58 29 102 l28 80 128 0 129 0 33 -85 c41 -104 40
-131 -5 -145 -18 -5 -31 -13 -29 -18 3 -11 301 -11 304 0 2 5 -10 13 -26 20
-16 6 -36 21 -45 35 -9 13 -73 172 -144 354 l-128 329 -40 3 -39 3 -114 -315z
m168 1 c28 -77 51 -141 51 -143 0 -2 -52 -4 -115 -4 -63 0 -115 2 -115 4 0 4
89 249 106 290 9 24 11 20 73 -147z"/>
<path d="M7040 4880 c0 -5 11 -12 24 -16 14 -3 32 -14 41 -25 10 -10 77 -170
150 -356 l132 -338 37 0 38 0 119 325 c66 179 127 336 137 350 10 14 33 31 50
39 18 8 32 18 32 23 0 4 -52 8 -115 8 -110 0 -146 -10 -88 -25 66 -16 67 -39
14 -195 -52 -153 -119 -338 -129 -356 -9 -16 -202 467 -202 503 0 27 12 41 43
48 67 17 28 25 -122 25 -99 0 -161 -4 -161 -10z"/>
<path d="M7840 4885 c0 -3 16 -11 35 -19 21 -9 39 -26 45 -41 15 -40 13 -584
-3 -615 -7 -14 -26 -29 -45 -35 -18 -5 -31 -13 -30 -17 3 -7 360 -13 530 -9
78 1 74 -5 84 130 8 107 -5 120 -37 36 -10 -28 -30 -62 -44 -77 -47 -51 -75
-59 -193 -56 l-107 3 -3 169 -2 168 71 -4 c78 -4 103 -21 115 -77 10 -45 14
-52 24 -46 14 9 13 278 -1 273 -6 -2 -17 -21 -24 -42 -21 -60 -36 -70 -115
-74 l-70 -4 0 156 0 156 88 0 c48 0 103 -4 121 -10 48 -14 88 -55 107 -112 10
-30 21 -48 31 -48 13 0 15 8 9 46 -3 26 -6 71 -6 100 l0 54 -290 0 c-159 0
-290 -2 -290 -5z"/>
<path d="M8540 4882 c0 -4 19 -16 43 -27 l42 -20 2 -300 c3 -331 1 -343 -55
-359 -60 -17 -33 -26 78 -26 61 0 113 0 117 -1 4 0 9 4 11 9 1 5 -11 12 -27
15 -76 15 -83 51 -79 377 l3 225 175 -244 c96 -134 198 -276 225 -315 43 -60
56 -72 83 -74 l32 -3 0 330 c0 227 4 338 11 355 7 15 26 30 45 36 61 21 36 30
-81 30 -63 0 -115 -4 -115 -8 0 -5 18 -16 40 -25 26 -10 43 -25 50 -42 6 -17
9 -113 8 -243 l-3 -217 -190 267 -190 267 -112 0 c-62 1 -113 -2 -113 -7z"/>
<path d="M10090 4881 c0 -5 11 -12 25 -15 14 -4 34 -15 45 -26 19 -19 20 -34
20 -307 0 -315 -2 -327 -57 -353 -18 -8 -31 -19 -30 -23 4 -12 231 -11 235 1
1 5 -12 12 -31 16 -71 13 -72 16 -75 325 -2 254 -1 274 14 256 9 -11 88 -121
177 -245 269 -378 263 -370 297 -370 l30 0 0 334 c0 317 1 335 20 359 11 13
31 28 45 31 14 4 25 11 25 16 0 6 -49 10 -122 10 -120 0 -136 -5 -75 -26 21
-7 38 -22 50 -46 15 -31 17 -61 15 -251 l-3 -215 -104 146 c-58 81 -145 202
-194 270 l-89 122 -109 0 c-60 0 -109 -4 -109 -9z"/>
<path d="M10895 4799 c-9 -111 3 -133 35 -63 38 88 90 124 175 124 l45 0 0
-325 c0 -312 -1 -326 -20 -345 -11 -11 -29 -20 -40 -20 -11 0 -20 -4 -20 -10
0 -6 54 -11 140 -11 77 -1 145 -2 152 -3 6 -1 13 5 16 12 2 7 -5 12 -16 12
-11 0 -31 9 -46 21 l-26 20 0 326 0 325 64 -4 c83 -5 126 -36 154 -110 28 -75
46 -70 43 12 -1 36 -4 80 -8 98 l-5 32 -318 0 -318 0 -7 -91z"/>
<path d="M12630 4885 c0 -3 18 -12 39 -21 24 -9 41 -24 45 -37 3 -12 6 -150 6
-307 0 -157 -3 -295 -6 -307 -4 -13 -21 -28 -47 -38 -23 -9 -36 -19 -30 -23 6
-4 79 -6 162 -4 143 3 180 12 111 27 -17 4 -35 15 -40 25 -6 11 -10 141 -10
324 l0 305 26 20 c15 12 35 21 45 21 11 0 19 5 19 10 0 6 -60 10 -160 10 -88
0 -160 -2 -160 -5z"/>
<path d="M3355 4234 c-71 -102 -134 -191 -139 -198 -6 -8 12 -40 53 -98 33
-47 61 -88 61 -92 0 -6 -374 -532 -659 -926 l-91 -125 0 -392 c0 -216 2 -393
4 -393 2 0 127 172 277 383 151 210 446 622 657 916 210 294 381 540 378 546
-2 7 -42 64 -88 127 -45 63 -135 187 -198 276 -63 88 -117 161 -120 161 -3 0
-63 -83 -135 -185z"/>
<path d="M5857 3870 c-116 -20 -218 -100 -271 -210 -29 -61 -31 -73 -31 -175
0 -100 3 -116 28 -171 36 -77 104 -145 182 -181 81 -37 201 -39 327 -4 l86 24
7 71 c3 39 8 83 11 99 9 45 -21 33 -40 -16 -25 -66 -72 -123 -119 -146 -79
-38 -189 -20 -244 40 -125 138 -123 471 4 591 36 35 73 48 131 48 96 -1 170
-61 210 -172 23 -65 42 -63 42 5 0 97 -11 157 -29 157 -9 0 -43 9 -76 19 -77
24 -157 31 -218 21z"/>
<path d="M6600 3870 c-112 -19 -211 -94 -262 -198 -32 -64 -33 -71 -33 -187 0
-111 2 -124 28 -177 37 -76 99 -138 173 -173 51 -25 71 -29 149 -30 117 0 178
21 248 85 132 121 166 318 83 485 -20 41 -53 88 -73 105 -81 71 -210 108 -313
90z m133 -44 c116 -49 177 -268 133 -478 -31 -144 -94 -211 -201 -211 -107 0
-177 75 -205 221 -16 80 -8 271 14 333 21 57 70 117 110 135 40 17 108 18 149
0z"/>
<path d="M8129 3870 c-25 -4 -59 -15 -75 -23 -39 -20 -90 -75 -103 -110 -17
-45 -13 -117 10 -164 26 -53 77 -90 201 -143 131 -57 168 -93 168 -163 0 -83
-51 -130 -140 -130 -66 0 -128 28 -163 75 -31 42 -67 113 -67 133 0 8 -7 15
-15 15 -12 0 -15 -18 -15 -105 0 -76 4 -107 13 -109 222 -60 310 -60 408 3
112 71 121 255 16 335 -18 14 -86 50 -150 80 -140 66 -167 91 -167 153 0 76
52 123 135 123 77 0 162 -76 180 -161 4 -16 13 -29 21 -29 11 0 14 17 14 78 0
94 -7 125 -27 118 -8 -4 -38 0 -66 8 -74 21 -125 25 -178 16z"/>
<path d="M12093 3870 c-187 -39 -303 -187 -303 -385 0 -148 49 -248 157 -321
108 -74 238 -82 403 -26 l85 29 5 119 5 119 38 18 c20 10 37 23 37 28 0 5 -66
9 -150 9 -127 0 -150 -2 -150 -15 0 -8 8 -15 18 -15 10 0 28 -7 40 -16 21 -14
22 -23 22 -130 l0 -115 -35 -15 c-50 -21 -131 -18 -182 7 -48 23 -89 77 -119
154 -26 69 -27 286 -1 360 75 217 337 219 415 3 28 -79 42 -62 42 50 l0 97
-87 23 c-106 27 -184 34 -240 22z"/>
<path d="M7100 3852 c0 -5 18 -16 39 -26 22 -9 43 -27 47 -38 13 -41 8 -582
-5 -607 -7 -12 -29 -30 -49 -39 l-37 -16 70 -8 c86 -11 167 -7 172 8 2 6 -10
14 -26 17 -75 15 -84 56 -79 387 l3 215 225 -315 c209 -292 228 -315 258 -318
l32 -3 0 325 c0 187 4 336 10 350 5 15 25 34 45 43 19 9 35 20 35 25 0 4 -52
8 -116 8 -86 0 -115 -3 -112 -12 3 -7 19 -16 36 -20 54 -14 59 -33 64 -243 6
-304 25 -304 -197 7 l-190 267 -112 1 c-62 0 -113 -4 -113 -8z"/>
<path d="M8510 3850 c0 -5 7 -10 15 -10 9 0 27 -11 40 -25 l25 -24 0 -234 c0
-254 7 -300 54 -362 87 -114 328 -126 432 -21 65 64 74 109 74 361 0 241 6
270 56 291 60 25 39 34 -81 34 -109 0 -146 -10 -89 -24 14 -4 37 -18 50 -31
24 -24 24 -24 24 -252 0 -126 -5 -245 -10 -265 -14 -48 -55 -97 -97 -114 -39
-17 -136 -18 -166 -3 -44 23 -78 64 -92 113 -11 37 -15 105 -15 276 0 242 4
265 52 272 12 2 23 9 26 16 3 9 -31 12 -147 12 -94 0 -151 -4 -151 -10z"/>
<path d="M9306 3852 c-3 -5 11 -14 30 -21 21 -7 36 -21 39 -34 3 -12 4 -159 3
-327 l-3 -305 -38 -18 c-20 -10 -35 -23 -32 -27 3 -5 134 -7 293 -5 l287 5 6
57 c11 93 10 163 -1 163 -6 0 -13 -8 -16 -17 -23 -70 -61 -126 -99 -149 -36
-21 -54 -24 -139 -24 -94 0 -97 1 -106 26 -13 33 -13 585 0 618 6 16 21 28 41
34 18 4 34 13 37 20 3 9 -34 12 -147 12 -82 0 -152 -4 -155 -8z"/>
<path d="M9876 3818 c-17 -141 -18 -158 -2 -158 8 0 20 16 26 38 28 85 101
137 186 130 l39 -3 0 -323 0 -324 -24 -19 c-13 -10 -32 -19 -43 -19 -11 0 -18
-5 -16 -12 7 -19 308 -20 308 -2 0 8 -9 14 -20 14 -12 0 -32 11 -45 25 l-25
24 0 321 0 320 43 0 c98 0 160 -44 186 -131 7 -23 18 -39 27 -39 13 0 15 13 8
93 -3 50 -8 95 -11 100 -2 4 -145 7 -318 7 l-314 0 -5 -42z"/>
<path d="M10600 3850 c0 -5 11 -12 25 -16 53 -13 55 -23 55 -351 0 -290 -1
-304 -20 -323 -11 -11 -29 -20 -40 -20 -11 0 -20 -4 -20 -9 0 -13 290 -25 302
-13 7 7 -1 16 -28 27 -21 9 -42 21 -46 28 -4 7 -8 147 -8 312 0 323 2 340 52
347 12 2 23 9 26 16 3 9 -31 12 -147 12 -92 0 -151 -4 -151 -10z"/>
<path d="M10982 3848 c3 -7 13 -15 24 -16 10 -2 29 -13 42 -25 22 -20 22 -23
22 -302 0 -177 -4 -294 -11 -313 -7 -22 -21 -35 -45 -44 -62 -22 -33 -33 86
-33 75 0 115 4 117 11 2 7 -11 14 -30 18 -71 13 -72 16 -75 324 -2 152 -1 274
1 272 3 -3 105 -144 227 -315 209 -293 223 -310 252 -310 l32 0 3 329 c3 361
4 367 64 388 56 19 28 28 -91 28 -112 0 -151 -10 -97 -25 48 -14 67 -29 77
-64 11 -42 14 -441 3 -440 -5 0 -64 79 -133 176 -69 97 -154 216 -189 265
l-65 88 -109 0 c-82 0 -108 -3 -105 -12z"/>
<path d="M1256 3743 c72 -102 818 -1138 1048 -1455 l201 -278 3 388 2 387 -57
82 c-32 46 -197 276 -367 513 l-308 430 -285 0 -285 0 48 -67z"/>
</g>
</svg>
